<?xml version="1.0" encoding="utf-8"?>
<!-- Generator: Adobe Illustrator 16.0.0, SVG Export Plug-In . SVG Version: 6.00 Build 0)  -->
<!DOCTYPE svg PUBLIC "-//W3C//DTD SVG 1.1//EN" "http://www.w3.org/Graphics/SVG/1.1/DTD/svg11.dtd">
<svg version="1.1" id="Layer_1" xmlns="http://www.w3.org/2000/svg" xmlns:xlink="http://www.w3.org/1999/xlink" x="0px" y="0px"
	 width="300px" height="300px" viewBox="0 0 300 300" enable-background="new 0 0 300 300" xml:space="preserve">
<g>
	<circle fill="#FFFFFF" cx="150" cy="149.998" r="150"/>
	<g>
		<g>
			<path fill="#F0A052" d="M294.904,149.428c0,80.027-64.877,144.9-144.905,144.9c-80.029,0-144.903-64.873-144.903-144.9
				C5.096,69.399,69.97,4.526,149.999,4.526C230.027,4.526,294.904,69.399,294.904,149.428z"/>
			<defs>
				<filter id="Adobe_OpacityMaskFilter" filterUnits="userSpaceOnUse" x="5.096" y="4.526" width="289.809" height="289.802">
					<feColorMatrix  type="matrix" values="1 0 0 0 0  0 1 0 0 0  0 0 1 0 0  0 0 0 1 0"/>
				</filter>
			</defs>
			<mask maskUnits="userSpaceOnUse" x="5.096" y="4.526" width="289.809" height="289.802" id="SVGID_1_">
				<g filter="url(#Adobe_OpacityMaskFilter)">
					
						<rect x="142.284" y="139.131" transform="matrix(-0.7071 0.7071 -0.7071 -0.7071 528.0859 231.8744)" fill="#EE933A" width="147.473" height="172.351"/>
				</g>
			</mask>
			<path mask="url(#SVGID_1_)" fill="#ED663A" d="M294.904,149.428c0,80.027-64.877,144.9-144.905,144.9
				c-80.029,0-144.903-64.873-144.903-144.9C5.096,69.399,69.97,4.526,149.999,4.526C230.027,4.526,294.904,69.399,294.904,149.428z
				"/>
		</g>
		<path id="path2384_1_" sodipodi:nodetypes="css" fill="#FFFAF5" d="M150.402,64.45c72.34-0.373,103.025,169.954,1.102,169.954
			C43.794,234.404,78.924,64.82,150.402,64.45z"/>
	</g>
</g>
</svg>
