<?xml version="1.0" encoding="utf-8"?>
<!-- Generator: Adobe Illustrator 16.0.0, SVG Export Plug-In . SVG Version: 6.00 Build 0)  -->
<!DOCTYPE svg PUBLIC "-//W3C//DTD SVG 1.1//EN" "http://www.w3.org/Graphics/SVG/1.1/DTD/svg11.dtd">
<svg version="1.1" id="Layer_1" xmlns="http://www.w3.org/2000/svg" xmlns:xlink="http://www.w3.org/1999/xlink" x="0px" y="0px"
	 width="300px" height="300px" viewBox="0 0 300 300" enable-background="new 0 0 300 300" xml:space="preserve">
<g>
	<circle fill="#FFFFFF" cx="150" cy="149.998" r="150"/>
	<g>
		<g>
			<path fill="#F0A052" d="M294.904,149.428c0,80.027-64.877,144.9-144.905,144.9c-80.029,0-144.903-64.873-144.903-144.9
				C5.096,69.399,69.97,4.526,149.999,4.526C230.027,4.526,294.904,69.399,294.904,149.428z"/>
			<defs>
				<filter id="Adobe_OpacityMaskFilter" filterUnits="userSpaceOnUse" x="5.096" y="4.526" width="289.809" height="289.802">
					<feColorMatrix  type="matrix" values="1 0 0 0 0  0 1 0 0 0  0 0 1 0 0  0 0 0 1 0"/>
				</filter>
			</defs>
			<mask maskUnits="userSpaceOnUse" x="5.096" y="4.526" width="289.809" height="289.802" id="SVGID_1_">
				<g filter="url(#Adobe_OpacityMaskFilter)">
					
						<rect x="142.284" y="139.131" transform="matrix(-0.7071 0.7071 -0.7071 -0.7071 528.0859 231.8744)" fill="#EE933A" width="147.473" height="172.351"/>
				</g>
			</mask>
			<path mask="url(#SVGID_1_)" fill="#ED663A" d="M294.904,149.428c0,80.027-64.877,144.9-144.905,144.9
				c-80.029,0-144.903-64.873-144.903-144.9C5.096,69.399,69.97,4.526,149.999,4.526C230.027,4.526,294.904,69.399,294.904,149.428z
				"/>
		</g>
		<path fill-rule="evenodd" clip-rule="evenodd" fill="#FFFFFF" d="M137.837,134.792c2.632-2.084,3.513-3.765,1.928-5.951
			c-1.344-1.857-0.897-3.68-0.259-5.64c2.172-6.674,4.137-13.422,6.423-20.058c0.903-2.63,0.355-4.063-2.047-5.435
			c-4.485-2.562-8.761-5.491-13.187-8.164c-1.729-1.043-2.623-2.221-2.65-4.4c-0.066-5.828-0.388-11.659-0.702-17.482
			c-0.096-1.794,0.492-2.903,2.07-3.859c11.358-6.879,22.931-8.478,35.085-2.023c14.147,7.515,24.433,18.999,32.904,32.207
			c18.729,29.199,24.871,60.711,14.912,94.257c-7.145,24.071-23.162,40.128-48.288,45.015c-24.709,4.804-47.036-0.289-64.52-19.731
			c-10.663-11.856-15.854-26.306-17.503-41.901c-3.972-37.529,7.822-69.724,33.766-96.905c0.714-0.746,1.534-1.389,2.545-2.298
			c1.382,3.748,0.695,7.338,0.976,10.83c0.074,0.925,0.179,1.872,0.058,2.782c-0.669,5.054,1.372,8.05,6.288,9.722
			c4.114,1.401,7.895,3.753,11.936,5.403c2.363,0.964,2.783,2.397,2.289,4.639c-1.163,5.306-2.068,10.672-3.374,15.94
			c-0.798,3.243-1.101,6.235,1.132,8.998C138.426,131.736,138.274,132.855,137.837,134.792z"/>
	</g>
</g>
</svg>
